<?xml version="1.0" encoding="utf-8"?>
<!-- Generator: Adobe Illustrator 24.1.2, SVG Export Plug-In . SVG Version: 6.00 Build 0)  -->
<svg version="1.1" id="Capa_1" xmlns="http://www.w3.org/2000/svg" xmlns:xlink="http://www.w3.org/1999/xlink" x="0px" y="0px"
	 viewBox="0 0 22.8 18.7" style="enable-background:new 0 0 22.8 18.7;" xml:space="preserve">
<style type="text/css">
	.st0{fill:#3F3936;}
</style>
<path class="st0" d="M1.4,0c0.8,0,1.4,0.6,1.4,1.4S2.1,2.8,1.4,2.8C0.6,2.8,0,2.1,0,1.4S0.6,0,1.4,0"/>
<path class="st0" d="M1.4,8c0.8,0,1.4,0.6,1.4,1.4s-0.6,1.4-1.4,1.4C0.6,10.7,0,10.1,0,9.4S0.6,8,1.4,8"/>
<path class="st0" d="M1.4,16c0.8,0,1.4,0.6,1.4,1.4c0,0.8-0.6,1.4-1.4,1.4c-0.8,0-1.4-0.6-1.4-1.4S0.6,16,1.4,16"/>
<path class="st0" d="M7.4,2h14.8c0.3,0,0.6-0.3,0.6-0.6s-0.3-0.6-0.6-0.6H7.4C7.1,0.8,6.8,1,6.8,1.4S7.1,2,7.4,2"/>
<path class="st0" d="M7.4,10h14.8c0.3,0,0.6-0.3,0.6-0.6s-0.3-0.6-0.6-0.6H7.4C7.1,8.8,6.8,9,6.8,9.4S7.1,10,7.4,10"/>
<path class="st0" d="M7.4,17.9h14.8c0.3,0,0.6-0.3,0.6-0.6s-0.3-0.6-0.6-0.6H7.4c-0.3,0-0.6,0.3-0.6,0.6S7.1,17.9,7.4,17.9"/>
</svg>
