<?xml version="1.0" encoding="utf-8"?>
<!-- Generator: Adobe Illustrator 24.1.2, SVG Export Plug-In . SVG Version: 6.00 Build 0)  -->
<svg version="1.1" id="Capa_1" xmlns="http://www.w3.org/2000/svg" xmlns:xlink="http://www.w3.org/1999/xlink" x="0px" y="0px"
	 viewBox="0 0 14.7 20.3" style="enable-background:new 0 0 14.7 20.3;" xml:space="preserve">
<style type="text/css">
	.st0{fill:#3F3936;}
</style>
<g>
	<path class="st0" d="M12.5,2.1C11.1,0.8,9.3,0,7.4,0c0,0-0.1,0-0.1,0C3.3,0.1,0,3.4,0,7.4c0,2.5,1.3,4.8,3.4,6.2
		c0.2,0.2,0.4,0.4,0.6,0.6L5,16.1c0.1,0.2,0.4,0.3,0.6,0.2c0.2-0.1,0.3-0.4,0.2-0.6l-1.1-1.9c-0.2-0.4-0.5-0.7-0.8-0.9
		c-1.9-1.2-3-3.3-3-5.6c0.1-3.6,3-6.4,6.5-6.4c3.6,0,6.5,2.9,6.5,6.5c0,2.2-1.1,4.3-3,5.5c-0.3,0.2-0.6,0.5-0.8,0.9l-2.5,4.4
		c0,0.1-0.1,0.1-0.2,0.1c-0.1,0-0.2,0-0.2-0.1l-0.8-1.5c-0.1-0.1-0.1-0.2-0.2-0.2c-0.1,0-0.2,0-0.3,0c-0.2,0.1-0.3,0.4-0.2,0.6
		l0.8,1.5c0.2,0.3,0.5,0.5,0.9,0.5h0c0.4,0,0.7-0.2,0.9-0.5l2.5-4.4c0.1-0.2,0.3-0.4,0.6-0.6c2.1-1.4,3.4-3.7,3.4-6.2
		C14.7,5.4,13.9,3.5,12.5,2.1"/>
	<path class="st0" d="M9.6,3C7.9,2.1,5.9,2.3,4.4,3.4C3.6,4,3,4.9,2.7,5.9c0,0.1,0,0.2,0,0.3c0,0.1,0.1,0.2,0.2,0.2
		c0.1,0,0.2,0,0.3,0c0.1,0,0.2-0.1,0.2-0.2C4,4.4,5.5,3.2,7.4,3.2c2.3,0,4.1,1.9,4.1,4.1s-1.9,4.1-4.1,4.1c-1.2,0-2.3-0.5-3-1.3
		C3.5,9.3,3.1,8.2,3.2,7c0-0.1,0-0.2-0.1-0.3C3.1,6.6,3,6.6,2.9,6.6c-0.1,0-0.2,0-0.3,0.1C2.5,6.7,2.5,6.8,2.5,6.9
		c-0.1,1.4,0.3,2.7,1.3,3.7c0.9,1,2.2,1.6,3.6,1.6c2.7,0,4.9-2.2,4.9-4.9C12.3,5.5,11.3,3.8,9.6,3"/>
	<path class="st0" d="M13,17.4c-0.6-0.2-1.5-0.4-2.5-0.5c-0.1,0-0.2,0-0.3,0.1c-0.1,0.1-0.1,0.2-0.2,0.3c0,0.1,0,0.2,0.1,0.3
		c0.1,0.1,0.2,0.1,0.3,0.2c2.2,0.3,2.8,0.7,2.9,0.8c-0.1,0.1-0.4,0.3-1.5,0.6c-1.2,0.3-2.8,0.4-4.4,0.4s-3.3-0.1-4.4-0.4
		c-1.1-0.2-1.5-0.5-1.5-0.6c0.1-0.1,0.7-0.5,2.9-0.8c0.2,0,0.4-0.2,0.4-0.4c0-0.2-0.2-0.4-0.4-0.4c-1,0.1-1.9,0.3-2.5,0.5
		c-0.8,0.3-1.2,0.6-1.2,1.1c0,0.6,0.7,1,2.2,1.4c1.2,0.3,2.9,0.4,4.6,0.4c1.7,0,3.4-0.1,4.6-0.4c1.5-0.3,2.2-0.8,2.2-1.4
		C14.1,18,13.8,17.7,13,17.4"/>
</g>
</svg>
