<?xml version="1.0" encoding="utf-8"?>
<!-- Generator: Adobe Illustrator 24.1.2, SVG Export Plug-In . SVG Version: 6.00 Build 0)  -->
<svg version="1.1" id="Capa_1" xmlns="http://www.w3.org/2000/svg" xmlns:xlink="http://www.w3.org/1999/xlink" x="0px" y="0px"
	 viewBox="0 0 21.5 32.1" style="enable-background:new 0 0 21.5 32.1;" xml:space="preserve">
<style type="text/css">
	.st0{fill:#FFFFFF;}
</style>
<g>
	<path class="st0" d="M0.5,25.1L0.5,25.1c0.1,0.4,0.3,0.9,0.5,1.3c0.4,0.8,1,1.6,1.6,2.3C3,29,3.4,29.4,3.8,29.7
		C4.9,30.7,6,31.5,7,32.1c-4.1-3.1-4.8-6.6-4.3-9.6c0.4-1.6,1.2-3.2,2.3-5l1.3-2.1c0,0,0.3-0.5,0.3-0.5C6.7,14.6,6.9,14.3,7,14
		c0.2-0.4,0.3-0.7,0.4-1.1c0.6-1.9,0.6-4,0-5.8c0,0,0,0,0-0.1l0-0.1C6.4,3.8,3.5,1.5,0.8,0c5.6,4.3,5.6,9,2.1,14.6l-1.3,2.1
		c0,0-0.3,0.5-0.3,0.5c-0.2,0.3-0.3,0.6-0.5,0.9c-0.2,0.4-0.3,0.7-0.4,1.1C-0.2,21.1-0.1,23.2,0.5,25.1C0.4,25,0.5,25,0.5,25.1"/>
	<path class="st0" d="M21,25.1L21,25.1c-0.1,0.4-0.3,0.9-0.5,1.3c-0.4,0.8-1,1.6-1.6,2.3c-0.4,0.4-0.8,0.8-1.2,1.2
		c-1.1,0.9-2.2,1.8-3.2,2.4c4.1-3.1,4.8-6.6,4.3-9.6c-0.4-1.6-1.2-3.2-2.3-5l-1.3-2.1c0,0-0.3-0.5-0.3-0.5c-0.2-0.3-0.3-0.6-0.5-0.9
		c-0.2-0.4-0.3-0.7-0.4-1.1c-0.6-1.9-0.6-4,0-5.8c0,0,0,0,0-0.1l0-0.1c1-3.2,3.9-5.5,6.6-6.9c-5.6,4.3-5.6,9-2.1,14.6l1.3,2.1
		c0,0,0.3,0.5,0.3,0.5c0.2,0.3,0.3,0.6,0.5,0.9c0.2,0.4,0.3,0.7,0.4,1.1C21.7,21.1,21.6,23.2,21,25.1C21.1,25,21,25,21,25.1"/>
</g>
</svg>
