<?xml version="1.0" encoding="utf-8"?>
<!-- Generator: Adobe Illustrator 24.1.2, SVG Export Plug-In . SVG Version: 6.00 Build 0)  -->
<svg version="1.1" id="Capa_1" xmlns="http://www.w3.org/2000/svg" xmlns:xlink="http://www.w3.org/1999/xlink" x="0px" y="0px"
	 viewBox="0 0 30.9 32.1" style="enable-background:new 0 0 30.9 32.1;" xml:space="preserve">
<style type="text/css">
	.st0{fill:#FFFFFF;}
</style>
<g>
	<path class="st0" d="M30.9,17.4c0-8.5-6.9-14.7-15.5-14.7C6.9,2.6,0,8.8,0,17.4v-1.9C0,6.9,6.9,0,15.4,0C24,0,30.9,6.9,30.9,15.4
		V17.4z"/>
	<path class="st0" d="M30.9,14.7c0,8.5-6.9,14.7-15.5,14.7C6.9,29.5,0,23.3,0,14.7v1.9c0,8.5,6.9,15.5,15.4,15.5
		c8.5,0,15.5-6.9,15.5-15.5V14.7z"/>
	<path class="st0" d="M10.1,21.6l1.4-1.3c0.8,0.7,1.9,1.1,3.1,1.3l0.6-5.4l-0.6-0.4c-1.5-1-2.2-2-2.2-3c0-1.8,1.2-3,3.6-3.4l0.4-3.1
		l0.9-0.9l-0.4,4l0.6,0c1.2,0,2.2,0.1,3,0.4L19.2,11c-0.6-0.4-1.4-0.7-2.5-0.9l-0.5,4.4l0.7,0.5c1.6,1.2,2.4,2.2,2.4,3.2
		c0,0.9-0.4,1.7-1.2,2.5c-0.8,0.8-1.7,1.3-2.8,1.4L15,25.6L14,26.5l0.5-4.1c-0.5,0.1-0.9,0.1-1.1,0.1C12.3,22.5,11.2,22.2,10.1,21.6
		 M15.9,10.1c-1.4,0-2,0.6-2,1.7c0,0.7,0.5,1.4,1.6,2.1L15.9,10.1z M15.4,21.6c1.6-0.2,2.4-1,2.4-2.4c0-0.7-0.5-1.4-1.4-2.1L16,16.7
		L15.4,21.6z"/>
</g>
</svg>
