<?xml version="1.0" encoding="utf-8"?>
<!-- Generator: Adobe Illustrator 24.1.2, SVG Export Plug-In . SVG Version: 6.00 Build 0)  -->
<svg version="1.1" id="Capa_1" xmlns="http://www.w3.org/2000/svg" xmlns:xlink="http://www.w3.org/1999/xlink" x="0px" y="0px"
	 viewBox="0 0 22 22" style="enable-background:new 0 0 22 22;" xml:space="preserve">
<style type="text/css">
	.st0{fill:#3F3936;}
</style>
<g>
	<path class="st0" d="M21.3,17.8l-4.5-4.5l-0.7,0.7l-1.2-1.2c0.9-1.3,1.4-2.9,1.4-4.6c0-4.5-3.7-8.1-8.1-8.1S0,3.7,0,8.1
		c0,4.5,3.7,8.1,8.1,8.1c1.7,0,3.3-0.5,4.6-1.4l1.2,1.2l-0.7,0.7l4.5,4.5c0.5,0.5,1.1,0.7,1.8,0.7c0.7,0,1.3-0.3,1.8-0.7
		C22.2,20.3,22.2,18.7,21.3,17.8 M12.8,13.9c-1.3,1-2.9,1.7-4.7,1.7c-4.1,0-7.4-3.3-7.4-7.4C0.7,4,4,0.7,8.1,0.7s7.4,3.3,7.4,7.4
		c0,1.8-0.6,3.4-1.7,4.7c0,0,0,0-0.1,0.1C13.6,13.2,13.2,13.6,12.8,13.9C12.9,13.9,12.8,13.9,12.8,13.9 M20.8,20.8
		c-0.3,0.3-0.8,0.5-1.3,0.5c-0.5,0-0.9-0.2-1.3-0.5l-4-4l0.7-0.7l-1.6-1.6c0,0,0,0,0.1,0c0.2-0.1,0.3-0.3,0.5-0.4
		c0,0,0.1-0.1,0.1-0.1c0.2-0.2,0.3-0.3,0.4-0.5c0,0,0,0,0-0.1l1.6,1.6l0.7-0.7l4,4C21.5,19,21.5,20.1,20.8,20.8"/>
	<rect x="18.5" y="18.5" transform="matrix(0.7071 -0.7071 0.7071 0.7071 -7.8106 18.8896)" class="st0" width="0.7" height="0.7"/>
	<rect x="17.5" y="17.5" transform="matrix(0.7071 -0.7071 0.7071 0.7071 -7.3941 17.8888)" class="st0" width="0.7" height="0.7"/>
	<rect x="16.5" y="16.5" transform="matrix(0.7071 -0.7071 0.7071 0.7071 -6.98 16.8889)" class="st0" width="0.7" height="0.7"/>
</g>
</svg>
