<?xml version="1.0" encoding="utf-8"?>
<!-- Generator: Adobe Illustrator 24.1.2, SVG Export Plug-In . SVG Version: 6.00 Build 0)  -->
<svg version="1.1" id="Capa_1" xmlns="http://www.w3.org/2000/svg" xmlns:xlink="http://www.w3.org/1999/xlink" x="0px" y="0px"
	 viewBox="0 0 32.1 24.1" style="enable-background:new 0 0 32.1 24.1;" xml:space="preserve">
<style type="text/css">
	.st0{fill:#FFFFFF;}
</style>
<g>
	<path class="st0" d="M3.1,12.9L3.1,12.9c-0.3,0.2-0.5,0.6-0.3,0.9c0.1,0.3,0.5,0.5,0.9,0.4l10-3.3l-1.9,3.1
		c-0.1,0.2-0.1,0.5,0.1,0.7c0.2,0.2,0.5,0.2,0.7,0.1l2-1c0.1,0,0.1-0.1,0.2-0.1l5.8-6.1l7.2-3.7c2.7-1.5,2.4-2.6,2.2-2.9
		c-0.1-0.2-0.4-0.6-1-0.7c-0.6-0.2-1.5-0.2-2.6,0c-0.4,0.1-0.6,0.1-0.8,0.1c-0.8,0-1.3,0-3.9,1.4L7.5,9L2,6.1C1.8,6,1.5,6,1.3,6.1
		L0.4,6.6C0.2,6.7,0.1,6.9,0,7.1c0,0.2,0,0.4,0.1,0.6L4,12.4L3.1,12.9z"/>
	<path class="st0" d="M11.3,24L11.3,24c-0.4,0-0.8-0.1-1.2-0.2c-0.7-0.2-1.5-0.5-2.2-0.9c-0.4-0.2-0.8-0.5-1.2-0.7
		c-1-0.7-1.9-1.4-2.6-2.2c3.5,2.7,6.5,2.6,8.9,1.6c1.3-0.6,2.4-1.6,3.7-3l1.5-1.5c0,0,0.4-0.4,0.4-0.4c0.2-0.2,0.4-0.4,0.7-0.6
		c0.3-0.2,0.6-0.4,0.8-0.6c1.5-0.9,3.2-1.3,4.9-1.2c0,0,0,0,0.1,0l0,0c2.9,0.2,5.4,2.1,7.2,4c-4.8-3.8-8.7-2.7-12.6,1.3L18,21.3
		c0,0-0.3,0.4-0.3,0.4c-0.2,0.2-0.4,0.4-0.7,0.6c-0.3,0.2-0.5,0.4-0.8,0.6C14.7,23.7,13,24.1,11.3,24C11.3,24,11.3,24,11.3,24"/>
</g>
</svg>
