<?xml version="1.0" encoding="utf-8"?>
<!-- Generator: Adobe Illustrator 24.1.2, SVG Export Plug-In . SVG Version: 6.00 Build 0)  -->
<svg version="1.1" id="Capa_1" xmlns="http://www.w3.org/2000/svg" xmlns:xlink="http://www.w3.org/1999/xlink" x="0px" y="0px"
	 viewBox="0 0 21.4 21" style="enable-background:new 0 0 21.4 21;" xml:space="preserve">
<style type="text/css">
	.st0{fill:#3F3936;}
</style>
<path class="st0" d="M21.4,18.5L19.7,6.3c-0.2-1.1-1.1-1.9-2.2-1.9h-2C15.4,1.9,13.3,0,10.8,0h-0.3C8,0,6,1.9,5.9,4.4h-2
	c-1.1,0-2,0.8-2.2,1.9L0,18.5c-0.1,0.6,0.1,1.3,0.5,1.7c0.4,0.5,1,0.7,1.7,0.7h17c0.6,0,1.2-0.3,1.6-0.8
	C21.3,19.8,21.5,19.2,21.4,18.5 M10.5,0.9h0.3c2,0,3.6,1.6,3.8,3.5H6.8C6.9,2.4,8.5,0.9,10.5,0.9 M20.2,19.7c-0.2,0.3-0.6,0.5-1,0.5
	h-17c-0.4,0-0.7-0.2-1-0.5C1,19.4,0.9,19,0.9,18.6l0-0.3h11.8c0.2,0,0.4-0.2,0.4-0.4c0-0.2-0.2-0.4-0.4-0.4H1.1L2.6,6.3
	c0.1-0.7,0.6-1.1,1.3-1.1h2v1.5c0,0.2,0.2,0.4,0.4,0.4c0.2,0,0.4-0.2,0.4-0.4V5.2h7.9v1.5c0,0.2,0.2,0.4,0.4,0.4s0.4-0.2,0.4-0.4
	V5.2h2c0.7,0,1.2,0.5,1.3,1.1l1.7,12.3C20.6,19,20.5,19.4,20.2,19.7"/>
</svg>
