<?xml version="1.0" encoding="utf-8"?>
<!-- Generator: Adobe Illustrator 24.1.2, SVG Export Plug-In . SVG Version: 6.00 Build 0)  -->
<svg version="1.1" id="Capa_1" xmlns="http://www.w3.org/2000/svg" xmlns:xlink="http://www.w3.org/1999/xlink" x="0px" y="0px"
	 viewBox="0 0 22 22" style="enable-background:new 0 0 22 22;" xml:space="preserve">
<style type="text/css">
	.st0{fill:#FFFFFF;}
</style>
<g>
	<path class="st0" d="M21.8,0.1c-0.1-0.1-0.3-0.1-0.4,0l-7.9,4.7c-0.2,0.1-0.3,0.4-0.2,0.6c0.1,0.2,0.4,0.3,0.6,0.2l5.6-3.3L9,13
		l-5.2-1.6l6.8-4c0.2-0.1,0.3-0.4,0.2-0.6c-0.1-0.2-0.4-0.3-0.6-0.2l-7.7,4.5c-0.1,0.1-0.2,0.3-0.2,0.4c0,0.2,0.1,0.3,0.3,0.4
		l6.3,1.9l2.8,5c0,0,0,0,0,0c0,0.1,0.1,0.1,0.2,0.2c0.1,0,0.1,0,0.2,0c0.1,0,0.2,0,0.3-0.1l3.2-3.1l6,1.8c0,0,0.1,0,0.1,0
		c0.1,0,0.2,0,0.3-0.1c0.1-0.1,0.2-0.2,0.2-0.3V0.4C22,0.3,21.9,0.1,21.8,0.1 M11.7,14.1c-0.1,0.1-0.1,0.2-0.1,0.2V17l-1.9-3.4
		L18,4.9L11.7,14.1z M12.4,17.7V15l2.1,0.6L12.4,17.7z M21.1,16.7l-8.4-2.6L21.1,2V16.7z"/>
	<path class="st0" d="M7.1,14.9c-0.2-0.2-0.4-0.2-0.6,0l-4,4c-0.2,0.2-0.2,0.4,0,0.6c0.1,0.1,0.2,0.1,0.3,0.1c0.1,0,0.2,0,0.3-0.1
		l4-4C7.2,15.4,7.2,15.1,7.1,14.9"/>
	<path class="st0" d="M1.7,20.3c-0.2-0.2-0.4-0.2-0.6,0l-1,1c-0.2,0.2-0.2,0.4,0,0.6C0.2,22,0.3,22,0.4,22c0.1,0,0.2,0,0.3-0.1l1-1
		C1.9,20.7,1.9,20.4,1.7,20.3"/>
	<path class="st0" d="M6.1,21.2c-0.1-0.1-0.2-0.1-0.3-0.1c-0.1,0-0.2,0-0.3,0.1c-0.1,0.1-0.1,0.2-0.1,0.3c0,0.1,0,0.2,0.1,0.3
		C5.6,21.9,5.7,22,5.8,22c0.1,0,0.2,0,0.3-0.1c0.1-0.1,0.1-0.2,0.1-0.3C6.3,21.4,6.2,21.3,6.1,21.2"/>
	<path class="st0" d="M9.3,18c-0.2-0.2-0.4-0.2-0.6,0l-2.1,2.1c-0.2,0.2-0.2,0.4,0,0.6c0.1,0.1,0.2,0.1,0.3,0.1c0.1,0,0.2,0,0.3-0.1
		l2.1-2.1C9.5,18.5,9.5,18.2,9.3,18"/>
	<path class="st0" d="M16.7,17.9c-0.2-0.2-0.4-0.2-0.6,0L13.9,20c-0.2,0.2-0.2,0.4,0,0.6c0.1,0.1,0.2,0.1,0.3,0.1
		c0.1,0,0.2,0,0.3-0.1l2.1-2.1C16.8,18.3,16.8,18,16.7,17.9"/>
	<path class="st0" d="M12.2,5.9c-0.1-0.1-0.2-0.1-0.3-0.1c-0.1,0-0.2,0-0.3,0.1c-0.1,0.1-0.1,0.2-0.1,0.3c0,0.1,0,0.2,0.1,0.3
		c0.1,0.1,0.2,0.1,0.3,0.1c0.1,0,0.2,0,0.3-0.1c0.1-0.1,0.1-0.2,0.1-0.3C12.3,6,12.3,5.9,12.2,5.9"/>
</g>
</svg>
