<?xml version="1.0" encoding="utf-8"?>
<!-- Generator: Adobe Illustrator 24.1.2, SVG Export Plug-In . SVG Version: 6.00 Build 0)  -->
<svg version="1.1" id="Capa_1" xmlns="http://www.w3.org/2000/svg" xmlns:xlink="http://www.w3.org/1999/xlink" x="0px" y="0px"
	 viewBox="0 0 21.7 20" style="enable-background:new 0 0 21.7 20;" xml:space="preserve">
<style type="text/css">
	.st0{fill:#3F3936;}
</style>
<g>
	<path class="st0" d="M4.7,12.2c-0.2-0.2-0.4-0.1-0.6,0s-0.1,0.4,0,0.6C4.2,12.9,4.3,13,4.4,13c0.1,0,0.2,0,0.3-0.1
		C4.9,12.7,4.9,12.4,4.7,12.2C4.7,12.2,4.7,12.2,4.7,12.2"/>
	<path class="st0" d="M18.2,10.2c-0.2,0-0.4,0-0.6,0.1c1.1-1.5,1.7-2.9,1.7-4.3c0-3.3-2.6-6-5.8-6c-1.5,0-2.8,0.6-3.9,1.6
		C8.6,0.6,7.2,0,5.8,0C2.6,0,0,2.7,0,6c0,1.8,1,3.7,2.9,5.7c0.2,0.2,0.4,0.2,0.6,0s0.2-0.4,0-0.6C1.8,9.3,0.9,7.6,0.9,6
		c0-2.8,2.2-5.2,4.9-5.2c1.4,0,2.6,0.6,3.6,1.6c0.1,0.1,0.2,0.1,0.3,0.1c0.1,0,0.2,0,0.3-0.1c0.9-1,2.2-1.6,3.6-1.6
		c2.7,0,4.9,2.3,4.9,5.2c0,1.5-0.9,3.2-2.5,5c-0.6-0.5-1.3-0.7-2.1-0.7c-1.9,0-3.4,1.6-3.4,3.6c0,0.5,0.1,0.9,0.3,1.4
		c-0.5,0.3-0.8,0.5-1,0.6c-0.5-0.3-2.1-1.2-3.7-2.5c-0.2-0.1-0.5-0.1-0.6,0.1c-0.1,0.2-0.1,0.5,0.1,0.6c2.1,1.6,4,2.7,4.1,2.7
		c0.1,0,0.1,0.1,0.2,0.1c0.1,0,0.1,0,0.2-0.1c0,0,0.5-0.3,1.2-0.7c1.4,2.2,4.5,4,4.7,4c0.1,0,0.1,0.1,0.2,0.1s0.1,0,0.2-0.1
		c0.2-0.1,5.4-3,5.4-6.1C21.7,11.8,20.1,10.2,18.2,10.2 M18.4,17.5c-1,0.8-1.9,1.4-2.3,1.6c-0.4-0.2-1.4-0.8-2.3-1.6
		c-1.1-0.9-2.4-2.3-2.4-3.7c0-1.5,1.2-2.7,2.6-2.7c0.7,0,1.4,0.3,1.9,0.8c0.1,0.1,0.2,0.1,0.3,0.1s0.2,0,0.3-0.1
		c0.5-0.5,1.2-0.8,1.9-0.8c1.4,0,2.6,1.2,2.6,2.7C20.8,15.1,19.5,16.5,18.4,17.5"/>
	<path class="st0" d="M13.6,2.9c0.2,0,0.4-0.2,0.4-0.4S13.8,2,13.6,2c-0.2,0-0.4,0.2-0.4,0.4S13.3,2.9,13.6,2.9L13.6,2.9z"/>
	<path class="st0" d="M16.5,6c0,0.2,0.2,0.4,0.4,0.4s0.4-0.2,0.4-0.4c0-1.5-0.9-3-2.2-3.6c-0.2-0.1-0.5,0-0.6,0.2
		c-0.1,0.2,0,0.5,0.2,0.6C15.8,3.7,16.5,4.8,16.5,6"/>
</g>
</svg>
